<?xml version="1.0" encoding="utf-8"?>
<svg width="25px" height="28px" viewBox="0 0 25 28" version="1.1" xmlns:xlink="http://www.w3.org/1999/xlink" xmlns="http://www.w3.org/2000/svg">
  <desc>Created with Lunacy</desc>
  <path d="M20.3239 10.9459C20.3239 16.3295 22.2376 17.9729 23.2604 19.0654C23.578 19.4043 23.7188 19.8106 23.7162 20.2079C23.7109 21.0709 23.029 21.8919 22.0169 21.8919L1.69934 21.8919C0.68717 21.8919 0.00585976 21.0709 3.66006e-05 20.2079C-0.00261029 19.8106 0.138204 19.4048 0.455831 19.0654C1.47859 17.9729 3.39229 16.3295 3.39229 10.9459C3.39229 6.857 6.27634 3.58374 10.1652 2.78069L10.1652 1.68399C10.1652 0.754112 10.9232 0 11.8581 0C12.793 0 13.5511 0.754112 13.5511 1.68399L13.5511 2.78069C17.4399 3.58374 20.3239 6.857 20.3239 10.9459ZM3.64868 19.3378C4.76202 17.8746 5.97925 15.4492 5.98502 10.9978C5.98502 10.9873 5.98187 10.9779 5.98187 10.9674C5.98187 7.73119 8.61255 5.10811 11.8581 5.10811C15.1037 5.10811 17.7344 7.73119 17.7344 10.9674C17.7344 10.9779 17.7313 10.9873 17.7313 10.9978C17.737 15.4498 18.9543 17.8751 20.0676 19.3378L3.64868 19.3378ZM15.3243 23.7162C15.3243 25.53 13.7719 27 11.8581 27C9.94425 27 8.39185 25.53 8.39185 23.7162L15.3243 23.7162Z" transform="translate(0.5 0.5)" id="Shape" fill="#23A53F" fill-rule="evenodd" stroke="none" />
</svg>